<svg width="22" height="17" viewBox="0 0 22 17" fill="none" xmlns="http://www.w3.org/2000/svg">
<path d="M21.6275 0L0.910156 1.41561e-06L0.910169 16.5L21.6275 16.5V0ZM18.3821 4.34203L11.723 9.59203C11.5931 9.69436 11.4333 9.74991 11.2689 9.74991C11.1044 9.74991 10.9446 9.69436 10.8147 9.59203L4.15558 4.34203C4.07734 4.28214 4.01163 4.20709 3.96225 4.12123C3.91288 4.03537 3.88083 3.94043 3.86797 3.84191C3.8551 3.74338 3.86169 3.64325 3.88733 3.54734C3.91298 3.45142 3.95718 3.36162 4.01736 3.28316C4.07754 3.20471 4.1525 3.13916 4.23789 3.09032C4.32327 3.04149 4.41739 3.01034 4.51475 2.99869C4.61212 2.98704 4.7108 2.99513 4.80506 3.02247C4.89931 3.04981 4.98727 3.09587 5.06382 3.15797L11.2689 8.04985L17.4739 3.15797C17.629 3.0392 17.8241 2.98711 18.0168 3.01296C18.2096 3.03881 18.3846 3.14053 18.5039 3.29612C18.6232 3.45171 18.6774 3.64866 18.6546 3.84439C18.6318 4.04012 18.5339 4.21888 18.3821 4.34203Z" fill="#0B1344"/>
</svg>
