<svg width="281" height="35" viewBox="0 0 281 35" fill="none" xmlns="http://www.w3.org/2000/svg">
<path d="M248.999 0H239.999V9L248.999 0Z" fill="white"/>
<path d="M23.9991 17.0723L28.9991 28.0724L28.9056 28.1053L31.5927 34.0722H39.1543L25.161 3H14.4269L0.433594 34.0722H7.99522L10.9503 27.5101H22.9811L20.5188 21.8606H13.4709L19.5115 8.4322H20.0764L23.9734 17.0953L23.9991 17.0723Z" fill="white"/>
<path d="M41.9848 3.50425L48.2013 9.49166L48.2862 9.40353V34.0722H41.9848V3.50425Z" fill="white"/>
<path d="M179.477 21.8606H186.197L188.66 27.5101H176.956L174.001 34.0722H166.439L180.433 3H191.167L205.16 34.0722H197.599L194.643 27.5101L192.123 21.8606L186.082 8.4322H185.517L179.477 21.8606Z" fill="white"/>
<path d="M240.372 11.8792L246.673 17.0685V34.0722H240.372V11.8792Z" fill="white"/>
<path d="M214.77 11.4742H227.999V11.5723L233.949 16.4719H215.074C213.828 16.4719 213.206 17.0803 213.206 18.2971C213.206 18.9055 213.379 19.3835 213.727 19.7312C214.075 20.0788 214.524 20.2527 215.074 20.2527H229.676C231.936 20.2527 233.66 20.8466 234.847 22.0344C236.064 23.1933 236.673 24.8881 236.673 27.119C236.673 29.3788 236.064 31.146 234.847 32.4208C233.631 33.6666 231.907 34.2895 229.676 34.2895H207.252V29.2918H228.546C229.763 29.2918 230.371 28.611 230.371 27.2493C230.371 25.9166 229.763 25.2503 228.546 25.2503H214.77C212.192 25.2503 210.236 24.6709 208.903 23.512C207.571 22.3241 206.904 20.6293 206.904 18.4274C206.904 16.1966 207.571 14.4873 208.903 13.2994C210.265 12.0826 212.221 11.4742 214.77 11.4742Z" fill="white"/>
<path fill-rule="evenodd" clip-rule="evenodd" d="M96.3821 16.6891H114.049C115.787 16.6891 116.657 17.5728 116.657 19.3401V20.383H99.9688C97.6221 20.383 95.8258 20.977 94.5801 22.1648C93.3343 23.3526 92.7114 25.033 92.7114 27.2059C92.7114 29.4077 93.3343 31.1026 94.5801 32.2904C95.8258 33.4783 97.6221 34.0722 99.9688 34.0722H122.958V18.5578C122.958 16.3849 122.407 14.7046 121.306 13.5167C120.206 12.2999 118.337 11.6915 115.7 11.6915H101.38L96.3821 16.6891ZM101.099 29.0746H116.657V25.3807H101.099C100.548 25.3807 100.114 25.5545 99.795 25.9022C99.5052 26.2208 99.3604 26.6554 99.3604 27.2059C99.3604 27.7563 99.5052 28.2054 99.795 28.5531C100.114 28.9007 100.548 29.0746 101.099 29.0746Z" fill="white"/>
<path fill-rule="evenodd" clip-rule="evenodd" d="M258.38 11.6915L253.382 16.6891H271.482C273.221 16.6891 274.09 17.5728 274.09 19.3401V20.383H257.402C255.055 20.383 253.259 20.977 252.013 22.1648C250.767 23.3526 250.145 25.033 250.145 27.2059C250.145 29.4077 250.767 31.1026 252.013 32.2904C253.259 33.4783 255.055 34.0722 257.402 34.0722H280.391V18.5578C280.391 16.3849 279.841 14.7046 278.74 13.5167C277.639 12.2999 275.77 11.6915 273.134 11.6915H258.38ZM274.09 29.0746H258.532C257.981 29.0746 257.547 28.9007 257.228 28.5531C256.938 28.2054 256.794 27.7563 256.794 27.2059C256.794 26.6554 256.938 26.2208 257.228 25.9022C257.547 25.5545 257.981 25.3807 258.532 25.3807H274.09V29.0746Z" fill="white"/>
<path d="M53.0614 34.0722V11.6915H82.0476C84.5971 11.6915 86.4658 12.3289 87.6537 13.6037C88.8415 14.8494 89.4354 16.5008 89.4354 18.5578V34.0722H83.1341V19.3401C83.1341 17.5728 82.236 16.6891 80.4397 16.6891H74.3991V34.0722H68.0977V16.6891H59.3628V34.0722H53.0614Z" fill="white"/>
<path d="M134.229 22.9036L125.799 34.0722H133.186L139.662 25.3807H142.79L149.353 34.0722H156.697L148.31 22.9036L156.697 11.735H149.353L142.834 20.383H139.662L133.186 11.735H125.799L134.229 22.9036Z" fill="white"/>
</svg>
