<svg width="44" height="48" viewBox="0 0 44 48" fill="none" xmlns="http://www.w3.org/2000/svg">
<rect width="44" height="48" fill="#F10E00"/>
<path d="M21 21.5V10H11.75C11.5511 10 11 10 11 10C11 10 11 10.5511 11 10.75V37.25C11 37.4489 11 38 11 38C11.5 38 11.5511 38 11.75 38H32.25C32.4489 38 33 38 33 38C33 38 33 37.4489 33 37.25V22H21.5C21.3674 22 21 22 21 22C21 22 21 21.6326 21 21.5Z" fill="white"/>
<path d="M23 10.6056V19.7499C23 19.8162 23.0008 19.9999 23.0008 19.9999C23.0008 19.9999 23.1837 19.9999 23.25 19.9999H32.3944C32.4191 20 32.4432 19.9927 32.4638 19.979C32.4843 19.9653 32.5004 19.9458 32.5099 19.923C32.5194 19.9002 32.5219 19.8751 32.5171 19.8509C32.5124 19.8266 32.5005 19.8043 32.4831 19.7868L23.2131 10.5168C23.1956 10.4994 23.1733 10.4876 23.1491 10.4828C23.1249 10.4781 23.0997 10.4806 23.0769 10.4901C23.0541 10.4996 23.0347 10.5156 23.021 10.5362C23.0073 10.5567 23 10.5809 23 10.6056Z" fill="white"/>
</svg>
