<svg width="44" height="48" viewBox="0 0 44 48" fill="none" xmlns="http://www.w3.org/2000/svg">
<rect width="44" height="48" fill="#F10E00"/>
<path d="M21 18.4609C19.752 18.8023 19 19.7609 19 20.6649C19 21.5689 19.752 22.5276 21 22.8676V18.4609ZM23 25.1289V29.5343C24.248 29.1943 25 28.2356 25 27.3316C25 26.4276 24.248 25.4689 23 25.1289Z" fill="white"/>
<path fill-rule="evenodd" clip-rule="evenodd" d="M35.3327 24.0013C35.3327 31.3653 29.3633 37.3346 21.9993 37.3346C14.6353 37.3346 8.66602 31.3653 8.66602 24.0013C8.66602 16.6373 14.6353 10.668 21.9993 10.668C29.3633 10.668 35.3327 16.6373 35.3327 24.0013ZM21.9993 15.0013C22.2646 15.0013 22.5189 15.1067 22.7065 15.2942C22.894 15.4817 22.9993 15.7361 22.9993 16.0013V16.424C25.1727 16.8133 26.9993 18.4466 26.9993 20.668C26.9993 20.9332 26.894 21.1875 26.7065 21.3751C26.5189 21.5626 26.2646 21.668 25.9993 21.668C25.7341 21.668 25.4798 21.5626 25.2922 21.3751C25.1047 21.1875 24.9993 20.9332 24.9993 20.668C24.9993 19.764 24.2473 18.8053 22.9993 18.464V23.0906C25.1727 23.48 26.9993 25.1133 26.9993 27.3346C26.9993 29.556 25.1727 31.1893 22.9993 31.5786V32.0013C22.9993 32.2665 22.894 32.5209 22.7065 32.7084C22.5189 32.8959 22.2646 33.0013 21.9993 33.0013C21.7341 33.0013 21.4798 32.8959 21.2922 32.7084C21.1047 32.5209 20.9993 32.2665 20.9993 32.0013V31.5786C18.826 31.1893 16.9993 29.556 16.9993 27.3346C16.9993 27.0694 17.1047 26.8151 17.2922 26.6275C17.4798 26.44 17.7341 26.3346 17.9993 26.3346C18.2646 26.3346 18.5189 26.44 18.7065 26.6275C18.894 26.8151 18.9993 27.0694 18.9993 27.3346C18.9993 28.2386 19.7513 29.1973 20.9993 29.5373V24.912C18.826 24.5226 16.9993 22.8893 16.9993 20.668C16.9993 18.4466 18.826 16.8133 20.9993 16.424V16.0013C20.9993 15.7361 21.1047 15.4817 21.2922 15.2942C21.4798 15.1067 21.7341 15.0013 21.9993 15.0013Z" fill="white"/>
</svg>
