<svg width="44" height="48" viewBox="0 0 44 48" fill="none" xmlns="http://www.w3.org/2000/svg">
<rect width="44" height="48" fill="#F10E00"/>
<path d="M34.0007 21.3333H22.8673C22.3181 19.774 21.2984 18.4235 19.9491 17.4682C18.5998 16.5129 16.9872 15.9999 15.334 16C10.9207 16 7.33398 19.5867 7.33398 24C7.33398 28.4133 10.9207 32 15.334 32C16.9872 32.0001 18.5998 31.4871 19.9491 30.5318C21.2984 29.5765 22.3181 28.226 22.8673 26.6667H23.334L26.0007 29.3333L28.6673 26.6667L31.334 29.3333L36.6673 23.9467L34.0007 21.3333ZM15.334 28C13.134 28 11.334 26.2 11.334 24C11.334 21.8 13.134 20 15.334 20C17.534 20 19.334 21.8 19.334 24C19.334 26.2 17.534 28 15.334 28Z" fill="white"/>
</svg>
