<svg width="44" height="48" viewBox="0 0 44 48" fill="none" xmlns="http://www.w3.org/2000/svg">
<rect width="44" height="48" fill="#F10E00"/>
<path d="M27.3333 10.668L34 17.3347V36.012C33.9996 36.3629 34 36.8347 34 37.3347C33.5428 37.3347 33.0269 37.3347 32.676 37.3347H11.324C10.9738 37.3322 10.5001 37.3347 10.0003 37.3347C10 37 10.0028 36.3622 10 36.012V11.9907C10 11.2708 9.99999 11 10.0085 10.6695C10.4486 10.6678 10.5608 10.6679 11.324 10.668H27.3333ZM24.0387 27.2627L26.9853 30.2093L28.872 28.3253L25.9253 25.3787C26.5849 24.2601 26.8139 22.9394 26.5693 21.6641C26.3248 20.3888 25.6234 19.2465 24.5968 18.4513C23.5702 17.6562 22.2888 17.2628 20.9928 17.3449C19.6969 17.427 18.4754 17.979 17.5573 18.8973C16.6387 19.8152 16.0865 21.0367 16.0044 22.3327C15.9222 23.6287 16.3157 24.9101 17.111 25.9366C17.9064 26.9632 19.0489 27.6642 20.3243 27.9084C21.5998 28.1525 22.9205 27.9229 24.0387 27.2627ZM23.2147 24.5533C22.9687 24.808 22.6744 25.0112 22.3491 25.1509C22.0237 25.2907 21.6738 25.3643 21.3197 25.3673C20.9657 25.3704 20.6145 25.3029 20.2868 25.1689C19.9591 25.0348 19.6613 24.8368 19.4109 24.5864C19.1606 24.336 18.9626 24.0383 18.8285 23.7106C18.6944 23.3828 18.6269 23.0317 18.63 22.6776C18.6331 22.3235 18.7066 21.9736 18.8464 21.6483C18.9862 21.3229 19.1893 21.0287 19.444 20.7827C19.9469 20.2969 20.6205 20.0281 21.3197 20.0342C22.0189 20.0403 22.6878 20.3207 23.1822 20.8152C23.6766 21.3096 23.9571 21.9784 23.9631 22.6776C23.9692 23.3768 23.7004 24.0504 23.2147 24.5533Z" fill="white"/>
</svg>
