<svg width="44" height="48" viewBox="0 0 44 48" fill="none" xmlns="http://www.w3.org/2000/svg">
<rect width="44" height="48" fill="#F10E00"/>
<path d="M22.0007 12C24.9473 12 27.334 14.3867 27.334 17.3333C27.334 20.28 24.9473 22.6667 22.0007 22.6667C19.054 22.6667 16.6673 20.28 16.6673 17.3333C16.6673 14.3867 19.054 12 22.0007 12ZM27.334 26.0533C27.334 27.4667 26.9607 30.76 24.414 34.44L23.334 28L24.5873 25.4933C23.7607 25.4 22.894 25.3333 22.0007 25.3333C21.1073 25.3333 20.2407 25.4 19.414 25.4933L20.6673 28L19.5873 34.44C17.0407 30.76 16.6673 27.4667 16.6673 26.0533C13.4807 26.9867 11.334 28.6667 11.334 30.6667V36H32.6673V30.6667C32.6673 28.6667 30.534 26.9867 27.334 26.0533Z" fill="white"/>
</svg>
