<svg width="44" height="48" viewBox="0 0 44 48" fill="none" xmlns="http://www.w3.org/2000/svg">
<rect width="44" height="48" fill="#F10E00"/>
<path d="M7.00004 34.2502C7.00004 34.7144 7.00002 35.0002 7.00002 36.0002C8.00064 36.0002 8.28591 36.0002 8.75004 36.0002H35.25C35.7142 36.0002 36.5 36.0002 37 36.0002C37 35.5002 37 34.7144 37 34.2502V21.0002H7.00004V34.2502ZM37 15.7502C37 15.2861 37 14.5002 37 14.0002C36.5 14.0002 35.7142 14.0002 35.25 14.0002H19.3025L16.3025 12.0002H8.75004C8.28591 12.0002 7.5 12 7.00064 12C6.99978 12.4987 7.00004 13.2861 7.00004 13.7502V19.0002H37V15.7502Z" fill="white"/>
</svg>
