<svg width="44" height="48" viewBox="0 0 44 48" fill="none" xmlns="http://www.w3.org/2000/svg">
<rect width="44" height="48" fill="#F10E00"/>
<path d="M22.0006 18.8326V10.8326H14.0006C13.2934 10.8326 12.1791 10.8303 11.3339 10.835C11.3339 12.1367 11.3339 12.792 11.3339 13.4992V23.4966C13.1724 22.7296 15.219 22.6194 17.1291 23.1845C19.0393 23.7496 20.6966 24.9555 21.8219 26.5992C22.9472 28.2429 23.472 30.2241 23.3078 32.2093C23.1437 34.1946 22.3006 36.0627 20.9206 37.4992H30.0006C30.7079 37.4992 31.8084 37.4992 32.6673 37.4992C32.6673 36.609 32.6673 35.5398 32.6673 34.8326V21.4992H24.6673C23.96 21.4992 23 21.5 22 21.5C22 20.5 22.0006 19.5398 22.0006 18.8326ZM24.0006 18.8326V11.4992L32.0006 19.4992H24.6673C24.4905 19.4992 24 19.5 24 19.5C24 19.5 24.0006 19.0094 24.0006 18.8326ZM12.6766 30.8326C12.7299 28.9459 13.0073 27.2739 13.4139 26.0526C13.6419 25.3686 13.8993 24.8619 14.1526 24.5406C14.4126 24.2112 14.5913 24.1659 14.6673 24.1659C14.7433 24.1659 14.9219 24.2112 15.1819 24.5406C15.4353 24.8619 15.6926 25.3672 15.9206 26.0526C16.3273 27.2739 16.6046 28.9459 16.6579 30.8326H12.6766ZM12.1486 25.6326C12.2803 25.2259 12.4444 24.8304 12.6393 24.4499C11.2196 24.8592 9.95656 25.6874 9.01524 26.8261C8.07391 27.9649 7.49816 29.3613 7.36328 30.8326H11.3433C11.3966 28.8326 11.6899 27.0112 12.1486 25.6326ZM17.1859 25.6326C17.0543 25.2259 16.8902 24.8304 16.6953 24.4499C18.1154 24.8584 19.379 25.6863 20.3204 26.8252C21.2619 27.9642 21.8373 29.361 21.9713 30.8326H17.9913C17.9379 28.8326 17.6446 27.0112 17.1859 25.6326ZM17.9913 32.1659H21.9713C21.8373 33.6375 21.2619 35.0343 20.3204 36.1732C19.379 37.3121 18.1154 38.1401 16.6953 38.5486C16.8901 38.1685 17.0542 37.7735 17.1859 37.3672C17.6459 35.9872 17.9379 34.1672 17.9913 32.1659ZM15.1819 38.4579C14.9219 38.7872 14.7433 38.8326 14.6673 38.8326C14.5913 38.8326 14.4126 38.7872 14.1526 38.4579C13.8993 38.1366 13.6419 37.6312 13.4139 36.9446C13.0073 35.7246 12.7299 34.0512 12.6766 32.1659H16.6579C16.6046 34.0526 16.3273 35.7246 15.9206 36.9446C15.6926 37.6299 15.4353 38.1366 15.1819 38.4579ZM7.36328 32.1659C7.49816 33.6372 8.07391 35.0335 9.01524 36.1723C9.95656 37.3111 11.2196 38.1393 12.6393 38.5486C12.4445 38.1685 12.2804 37.7735 12.1486 37.3672C11.6886 35.9872 11.3966 34.1672 11.3433 32.1659H7.36328Z" fill="white"/>
</svg>
