<svg width="24" height="24" viewBox="0 0 24 24" fill="none" xmlns="http://www.w3.org/2000/svg">
<path d="M13.0101 12.2794H5.98101V9.39967H13.0101C13.4207 9.39967 13.7062 9.47376 13.8495 9.60315C13.9928 9.73254 14.0815 9.97252 14.0815 10.3231V11.3571C14.0815 11.7265 13.9928 11.9664 13.8495 12.0958C13.7062 12.2252 13.4207 12.2805 13.0101 12.2805V12.2794ZM13.4924 6.6847H3V18.9999H5.98101V14.9933H11.4747L14.0815 18.9999H17.4196L14.5456 14.9745C15.6052 14.8119 16.081 14.4757 16.4734 13.9217C16.8658 13.3676 17.0625 12.4818 17.0625 11.2996V10.3762C17.0625 9.67504 16.9909 9.12098 16.8658 8.69632C16.7407 8.27165 16.5268 7.90229 16.2232 7.57053C15.9024 7.25644 15.5453 7.03527 15.1165 6.88707C14.6878 6.75768 14.1521 6.68359 13.4924 6.68359V6.6847Z" fill="#262626"/>
<path d="M19.7101 6.68367C20.975 6.68367 22.0003 5.63519 22.0003 4.34184C22.0003 3.04848 20.975 2 19.7101 2C18.4453 2 17.4199 3.04848 17.4199 4.34184C17.4199 5.63519 18.4453 6.68367 19.7101 6.68367Z" fill="#262626"/>
</svg>
