<svg width="24" height="24" viewBox="0 0 24 24" fill="none" xmlns="http://www.w3.org/2000/svg">
<path fill-rule="evenodd" clip-rule="evenodd" d="M3.16861 12.0268C6.20173 10.7043 9.24365 9.40192 12.2942 8.11966C16.6392 6.32293 17.5429 6.01051 18.131 6.00014C18.2614 5.99755 18.5509 6.02996 18.7374 6.18163C19.0165 6.4059 19.0178 6.89203 18.9865 7.21482C18.7517 9.67528 17.732 15.6436 17.213 18.3984C16.9939 19.5651 16.5623 19.9553 16.1437 19.9929C15.2361 20.0771 14.545 19.3966 13.666 18.8236C12.2877 17.9265 11.5105 17.3678 10.1739 16.4902C8.62858 15.479 9.63007 14.9229 10.5103 14.0141C10.7411 13.7756 14.7445 10.1562 14.8227 9.82695C14.8318 9.78676 14.841 9.6325 14.7497 9.55212C14.6584 9.47175 14.5228 9.49897 14.425 9.52101C14.2868 9.55212 12.0869 10.9988 7.8253 13.8573C7.19936 14.2851 6.63472 14.4925 6.12745 14.4808C5.56933 14.4679 4.49481 14.1671 3.69544 13.9091C2.71481 13.5928 1.93631 13.4243 2.00412 12.8876C2.03933 12.6063 2.42793 12.3185 3.16861 12.0268Z" fill="#262626"/>
</svg>
